<svg width="131" height="28" viewBox="0 0 131 28" fill="none" xmlns="http://www.w3.org/2000/svg">
<g clip-path="url(#clip0_474_12941)">
<mask id="mask0_474_12941" style="mask-type:luminance" maskUnits="userSpaceOnUse" x="0" y="0" width="131" height="28">
<path d="M131 0H0V28H131V0Z" fill="white"/>
</mask>
<g mask="url(#mask0_474_12941)">
<path d="M26.2136 4.62558C23.2932 2.2631 18.8748 2.53726 16.0002 5.06832C13.1258 2.53729 8.70759 2.25798 5.78671 4.62554C1.86915 7.79813 2.45678 12.9597 5.23567 15.688L13.8403 24.1221C14.4126 24.6836 15.1831 25 16.0001 25C16.8204 25 17.5865 24.6896 18.1599 24.1269L26.7644 15.6929C29.5374 12.9652 30.1366 7.80331 26.2136 4.62558Z" stroke="#252A34" stroke-width="5"/>
<path d="M30.15 2.34009C31.51 2.34009 32.62 2.53009 33.48 2.91009C34.34 3.29009 35.11 3.75009 35.79 4.29009C36.03 4.47009 36.23 4.56009 36.39 4.56009C36.77 4.56009 37.02 3.96009 37.14 2.76009H37.83C37.79 3.54009 37.76 4.49009 37.74 5.61009C37.72 6.71009 37.71 8.18009 37.71 10.02H37.02C36.88 8.82009 36.66 7.78009 36.36 6.90009C36.08 6.00009 35.55 5.23009 34.77 4.59009C34.29 4.13009 33.69 3.77009 32.97 3.51009C32.27 3.25009 31.56 3.12009 30.84 3.12009C29.74 3.12009 28.8 3.41009 28.02 3.99009C27.24 4.55009 26.6 5.32009 26.1 6.30009C25.6 7.28009 25.23 8.39009 24.99 9.63009C24.75 10.85 24.63 12.12 24.63 13.44C24.63 17.04 25.12 19.67 26.1 21.33C27.1 22.99 28.53 23.82 30.39 23.82C30.87 23.82 31.29 23.76 31.65 23.64C32.01 23.52 32.3 23.38 32.52 23.22C32.8 23.02 32.99 22.81 33.09 22.59C33.19 22.35 33.24 22.04 33.24 21.66V18.72C33.24 17.8 33.16 17.12 33 16.68C32.86 16.22 32.57 15.91 32.13 15.75C31.69 15.59 31.05 15.5 30.21 15.48V14.88C30.63 14.9 31.13 14.92 31.71 14.94C32.31 14.94 32.93 14.95 33.57 14.97C34.21 14.97 34.8 14.97 35.34 14.97C36.18 14.97 36.95 14.96 37.65 14.94C38.35 14.92 38.92 14.9 39.36 14.88V15.48C38.98 15.5 38.69 15.57 38.49 15.69C38.31 15.81 38.18 16.05 38.1 16.41C38.04 16.77 38.01 17.32 38.01 18.06V24H37.41C37.39 23.66 37.31 23.29 37.17 22.89C37.05 22.49 36.84 22.29 36.54 22.29C36.4 22.29 36.21 22.33 35.97 22.41C35.75 22.47 35.4 22.64 34.92 22.92C34.18 23.34 33.4 23.7 32.58 24C31.76 24.28 30.9 24.42 30 24.42C27.68 24.42 25.72 23.99 24.12 23.13C22.52 22.27 21.31 21.04 20.49 19.44C19.69 17.82 19.29 15.88 19.29 13.62C19.29 11.34 19.75 9.36009 20.67 7.68009C21.61 6.00009 22.89 4.69009 24.51 3.75009C26.15 2.81009 28.03 2.34009 30.15 2.34009Z" fill="white"/>
<path d="M44.6805 0.75C45.5205 0.75 46.1805 0.96 46.6605 1.38C47.1605 1.78 47.4105 2.34 47.4105 3.06C47.4105 3.78 47.1605 4.35 46.6605 4.77C46.1805 5.17 45.5205 5.37 44.6805 5.37C43.8405 5.37 43.1705 5.17 42.6705 4.77C42.1905 4.35 41.9505 3.78 41.9505 3.06C41.9505 2.34 42.1905 1.78 42.6705 1.38C43.1705 0.96 43.8405 0.75 44.6805 0.75ZM47.0205 8.16V21.21C47.0205 22.05 47.1605 22.62 47.4405 22.92C47.7405 23.22 48.2405 23.37 48.9405 23.37V24C48.5805 23.98 48.0205 23.96 47.2605 23.94C46.5005 23.9 45.7305 23.88 44.9505 23.88C44.1705 23.88 43.3805 23.9 42.5805 23.94C41.7805 23.96 41.1805 23.98 40.7805 24V23.37C41.4805 23.37 41.9705 23.22 42.2505 22.92C42.5505 22.62 42.7005 22.05 42.7005 21.21V11.76C42.7005 10.86 42.5605 10.2 42.2805 9.78C42.0205 9.34 41.5205 9.12 40.7805 9.12V8.49C41.4205 8.55 42.0405 8.58 42.6405 8.58C43.4805 8.58 44.2605 8.55 44.9805 8.49C45.7205 8.41 46.4005 8.3 47.0205 8.16Z" fill="white"/>
<path d="M64.6162 8.48999V9.08999C64.2362 9.18999 63.8762 9.42999 63.5362 9.80999C63.1962 10.17 62.8662 10.79 62.5462 11.67L58.1662 24.0599C57.8462 24.0399 57.5162 24.03 57.1762 24.03C56.8562 24.03 56.5362 24.0399 56.2162 24.0599L50.8762 10.8C50.5562 10.02 50.2362 9.54999 49.9162 9.38999C49.6162 9.20999 49.3562 9.11999 49.1362 9.11999V8.48999C49.7762 8.52999 50.4362 8.56999 51.1162 8.60999C51.8162 8.62999 52.5762 8.63999 53.3962 8.63999C54.0162 8.63999 54.6662 8.62999 55.3462 8.60999C56.0462 8.56999 56.6962 8.52999 57.2962 8.48999V9.11999C56.8762 9.11999 56.4962 9.13999 56.1562 9.17999C55.8362 9.21999 55.6162 9.34999 55.4962 9.56999C55.3762 9.78999 55.3962 10.18 55.5562 10.74L59.0662 20.04L58.7662 20.4599L61.1362 13.89C61.5162 12.81 61.6762 11.93 61.6162 11.25C61.5562 10.55 61.3362 10.03 60.9562 9.68999C60.5762 9.32999 60.0662 9.12999 59.4262 9.08999V8.48999C59.7262 8.50999 60.0462 8.52999 60.3862 8.54999C60.7462 8.54999 61.0862 8.55999 61.4062 8.57999C61.7462 8.57999 62.0462 8.57999 62.3062 8.57999C62.7062 8.57999 63.1262 8.56999 63.5662 8.54999C64.0062 8.52999 64.3562 8.50999 64.6162 8.48999Z" fill="white"/>
<path d="M72.6613 8.07007C74.4213 8.07007 75.8013 8.59007 76.8013 9.63007C77.8013 10.67 78.3013 12.37 78.3013 14.73H68.4313L68.3713 14.16H74.5213C74.5413 13.18 74.4813 12.28 74.3413 11.46C74.2013 10.62 73.9813 9.95007 73.6813 9.45007C73.3813 8.95007 72.9813 8.70007 72.4813 8.70007C71.7813 8.70007 71.1813 9.14007 70.6813 10.02C70.2013 10.9 69.9113 12.36 69.8113 14.4L69.9013 14.58C69.8813 14.82 69.8613 15.07 69.8413 15.33C69.8413 15.59 69.8413 15.86 69.8413 16.14C69.8413 17.52 70.0313 18.64 70.4113 19.5C70.8113 20.36 71.3113 20.99 71.9113 21.39C72.5113 21.77 73.1213 21.96 73.7413 21.96C74.1613 21.96 74.5913 21.9 75.0313 21.78C75.4913 21.64 75.9513 21.4 76.4113 21.06C76.8713 20.7 77.3013 20.2 77.7013 19.56L78.2413 19.74C78.0013 20.5 77.6213 21.24 77.1013 21.96C76.5813 22.68 75.9213 23.27 75.1213 23.73C74.3213 24.19 73.3613 24.42 72.2413 24.42C70.8813 24.42 69.6813 24.13 68.6413 23.55C67.6013 22.97 66.7813 22.09 66.1813 20.91C65.6013 19.73 65.3113 18.23 65.3113 16.41C65.3113 14.55 65.6213 13 66.2413 11.76C66.8813 10.52 67.7513 9.60007 68.8513 9.00007C69.9713 8.38007 71.2413 8.07007 72.6613 8.07007Z" fill="white"/>
<path d="M89.4661 2.76001V3.36001C88.7861 3.38001 88.2661 3.46001 87.9061 3.60001C87.5661 3.72001 87.3361 3.96001 87.2161 4.32001C87.0961 4.66001 87.0361 5.20001 87.0361 5.94001V21.18C87.0361 21.8 87.0761 22.26 87.1561 22.56C87.2561 22.86 87.4361 23.06 87.6961 23.16C87.9761 23.26 88.3861 23.31 88.9261 23.31H90.3961C91.0761 23.31 91.7161 23.15 92.3161 22.83C92.9161 22.51 93.4561 22.06 93.9361 21.48C94.4161 20.88 94.8161 20.17 95.1361 19.35C95.4561 18.53 95.6961 17.62 95.8561 16.62H96.5461C96.4861 17.3 96.4561 18.18 96.4561 19.26C96.4561 19.72 96.4661 20.39 96.4861 21.27C96.5061 22.15 96.5661 23.06 96.6661 24C95.6461 23.96 94.4961 23.94 93.2161 23.94C91.9361 23.92 90.7961 23.91 89.7961 23.91C89.2961 23.91 88.6561 23.91 87.8761 23.91C87.0961 23.91 86.2561 23.92 85.3561 23.94C84.4561 23.94 83.5461 23.95 82.6261 23.97C81.7061 23.97 80.8361 23.98 80.0161 24V23.4C80.6561 23.36 81.1361 23.28 81.4561 23.16C81.7761 23.04 81.9861 22.8 82.0861 22.44C82.2061 22.08 82.2661 21.54 82.2661 20.82V5.94001C82.2661 5.20001 82.2061 4.66001 82.0861 4.32001C81.9861 3.96001 81.7661 3.72001 81.4261 3.60001C81.1061 3.46001 80.6361 3.38001 80.0161 3.36001V2.76001C80.5161 2.78001 81.1861 2.80001 82.0261 2.82001C82.8861 2.84001 83.7961 2.85001 84.7561 2.85001C85.6361 2.85001 86.4961 2.84001 87.3361 2.82001C88.1961 2.80001 88.9061 2.78001 89.4661 2.76001Z" fill="white"/>
<path d="M101.956 0.75C102.796 0.75 103.456 0.96 103.936 1.38C104.436 1.78 104.686 2.34 104.686 3.06C104.686 3.78 104.436 4.35 103.936 4.77C103.456 5.17 102.796 5.37 101.956 5.37C101.116 5.37 100.446 5.17 99.9459 4.77C99.4659 4.35 99.2259 3.78 99.2259 3.06C99.2259 2.34 99.4659 1.78 99.9459 1.38C100.446 0.96 101.116 0.75 101.956 0.75ZM104.296 8.16V21.21C104.296 22.05 104.436 22.62 104.716 22.92C105.016 23.22 105.516 23.37 106.216 23.37V24C105.856 23.98 105.296 23.96 104.536 23.94C103.776 23.9 103.006 23.88 102.226 23.88C101.446 23.88 100.656 23.9 99.8559 23.94C99.0559 23.96 98.4559 23.98 98.0559 24V23.37C98.7559 23.37 99.2459 23.22 99.5259 22.92C99.8259 22.62 99.9759 22.05 99.9759 21.21V11.76C99.9759 10.86 99.8359 10.2 99.5559 9.78C99.2959 9.34 98.7959 9.12 98.0559 9.12V8.49C98.6959 8.55 99.3159 8.58 99.9159 8.58C100.756 8.58 101.536 8.55 102.256 8.49C102.996 8.41 103.676 8.3 104.296 8.16Z" fill="white"/>
<path d="M115.439 0.540039C116.139 0.540039 116.749 0.630039 117.269 0.810039C117.789 0.990039 118.249 1.23004 118.649 1.53004C118.929 1.75004 119.169 2.06004 119.369 2.46004C119.569 2.84004 119.669 3.28004 119.669 3.78004C119.669 4.32004 119.469 4.80004 119.069 5.22004C118.689 5.64004 118.179 5.85004 117.539 5.85004C116.879 5.85004 116.329 5.66004 115.889 5.28004C115.469 4.90004 115.259 4.38004 115.259 3.72004C115.259 3.20004 115.409 2.74004 115.709 2.34004C116.009 1.94004 116.449 1.66004 117.029 1.50004C116.969 1.38004 116.849 1.28004 116.669 1.20004C116.489 1.12004 116.249 1.08004 115.949 1.08004C115.549 1.08004 115.219 1.15004 114.959 1.29004C114.699 1.43004 114.489 1.62004 114.329 1.86004C114.109 2.16004 113.959 2.60004 113.879 3.18004C113.799 3.74004 113.759 4.61004 113.759 5.79004V8.52004H116.969V9.12004H113.759V20.91C113.759 21.89 114.009 22.55 114.509 22.89C115.009 23.21 115.699 23.37 116.579 23.37V24C116.059 23.98 115.329 23.96 114.389 23.94C113.449 23.9 112.459 23.88 111.419 23.88C110.659 23.88 109.909 23.9 109.169 23.94C108.449 23.96 107.899 23.98 107.519 24V23.37C108.219 23.37 108.709 23.22 108.989 22.92C109.289 22.62 109.439 22.05 109.439 21.21V9.12004H107.399V8.52004H109.439C109.439 7.34004 109.499 6.36004 109.619 5.58004C109.739 4.78004 109.939 4.10004 110.219 3.54004C110.499 2.98004 110.869 2.48004 111.329 2.04004C111.769 1.62004 112.349 1.27004 113.069 0.99004C113.809 0.69004 114.599 0.540039 115.439 0.540039Z" fill="white"/>
<path d="M125.278 8.07007C127.038 8.07007 128.418 8.59007 129.418 9.63007C130.418 10.67 130.918 12.37 130.918 14.73H121.048L120.988 14.16H127.138C127.158 13.18 127.098 12.28 126.958 11.46C126.818 10.62 126.598 9.95007 126.298 9.45007C125.998 8.95007 125.598 8.70007 125.098 8.70007C124.398 8.70007 123.798 9.14007 123.298 10.02C122.818 10.9 122.528 12.36 122.428 14.4L122.518 14.58C122.498 14.82 122.478 15.07 122.458 15.33C122.458 15.59 122.458 15.86 122.458 16.14C122.458 17.52 122.648 18.64 123.028 19.5C123.428 20.36 123.928 20.99 124.528 21.39C125.128 21.77 125.738 21.96 126.358 21.96C126.778 21.96 127.208 21.9 127.648 21.78C128.108 21.64 128.568 21.4 129.028 21.06C129.488 20.7 129.918 20.2 130.318 19.56L130.858 19.74C130.618 20.5 130.238 21.24 129.718 21.96C129.198 22.68 128.538 23.27 127.738 23.73C126.938 24.19 125.978 24.42 124.858 24.42C123.498 24.42 122.298 24.13 121.258 23.55C120.218 22.97 119.398 22.09 118.798 20.91C118.218 19.73 117.928 18.23 117.928 16.41C117.928 14.55 118.238 13 118.858 11.76C119.498 10.52 120.368 9.60007 121.468 9.00007C122.588 8.38007 123.858 8.07007 125.278 8.07007Z" fill="white"/>
</g>
</g>
<defs>
<clipPath id="clip0_474_12941">
<rect width="131" height="28" fill="white"/>
</clipPath>
</defs>
</svg>
